<svg xmlns="http://www.w3.org/2000/svg" viewBox="0 0 1200 1600" role="img" aria-label="Lifestyle analysis placeholder">
  <defs>
    <linearGradient id="room" x1="0" x2="1" y1="0" y2="1">
      <stop offset="0" stop-color="#c0b3a6"/>
      <stop offset="0.45" stop-color="#8d8074"/>
      <stop offset="1" stop-color="#302722"/>
    </linearGradient>
  </defs>
  <rect width="1200" height="1600" fill="url(#room)"/>
  <path d="M0 0h1200v430H0z" fill="#dbd6cd" opacity="0.5"/>
  <path d="M330 1550c38-315 138-455 304-455 160 0 255 140 295 455z" fill="#171916"/>
  <path d="M444 640c0-143 78-235 190-235 113 0 190 92 190 235 0 159-82 278-190 278-107 0-190-119-190-278z" fill="#a98267"/>
  <path d="M413 548c35-126 123-205 230-205 127 0 207 91 215 219-70-45-152-70-245-73-80-2-147 17-200 59z" fill="#17120f"/>
  <rect x="95" y="1090" width="255" height="330" rx="22" fill="#f3f0ea" opacity="0.24"/>
  <rect x="118" y="1114" width="104" height="104" rx="12" fill="#d5b091"/>
  <rect x="239" y="1134" width="80" height="8" rx="4" fill="#ffffff" opacity="0.72"/>
  <rect x="239" y="1160" width="58" height="8" rx="4" fill="#ffffff" opacity="0.42"/>
  <rect x="118" y="1265" width="190" height="9" rx="4.5" fill="#ffffff" opacity="0.52"/>
  <rect x="118" y="1293" width="148" height="9" rx="4.5" fill="#ffffff" opacity="0.34"/>
</svg>
